<svg xmlns="http://www.w3.org/2000/svg" version="1.1" xmlns:xlink="http://www.w3.org/1999/xlink" width="512" height="512" x="0" y="0" viewBox="0 0 64 64" style="enable-background:new 0 0 512 512" xml:space="preserve" class=""><g><g data-name="Discount Coupon"><path d="m58.37 21.1-4.44-4.44a.097.097 0 0 0-.14 0 3.726 3.726 0 0 1-5.27-5.26.097.097 0 0 0 0-.14l-4.44-4.44a2.107 2.107 0 0 0-2.99-.02l-7.95 7.95a1.006 1.006 0 0 1-.28.8.982.982 0 0 1-.71.29c-.03 0-.06-.01-.09-.01L16.54 31.35h30.91a.996.996 0 0 1 1.67-.95l.71.71a1.077 1.077 0 0 1 .18.24h1.13l7.25-7.25a2.128 2.128 0 0 0-.02-3zm-22.68-2.72a.982.982 0 0 1-.71.29.998.998 0 0 1-.71-.29l-.7-.71a.997.997 0 0 1 1.41-1.41l.71.71a.996.996 0 0 1 0 1.41zm2.83 2.83a1.014 1.014 0 0 1-1.42 0l-.7-.71a.978.978 0 0 1 0-1.41.996.996 0 0 1 1.41 0l.71.7a1.008 1.008 0 0 1 0 1.42zm2.83 2.83a1.042 1.042 0 0 1-.71.29 1.024 1.024 0 0 1-.71-.29l-.71-.71a.996.996 0 0 1 0-1.41 1.008 1.008 0 0 1 1.42 0l.71.7a1.008 1.008 0 0 1 0 1.42zm2.82 2.83a1.001 1.001 0 0 1-.7.29 1.024 1.024 0 0 1-.71-.29l-.71-.71a1.004 1.004 0 1 1 1.42-1.42l.7.71a1.008 1.008 0 0 1 0 1.42zM47 29.69a.978.978 0 0 1-1.41 0l-.71-.7a1.008 1.008 0 0 1 0-1.42.996.996 0 0 1 1.41 0l.71.71a.996.996 0 0 1 0 1.41zM25.976 48.723a1.447 1.447 0 1 0 1.447 1.447 1.449 1.449 0 0 0-1.447-1.447z" fill="#26bf94" opacity="1" data-original="#000000"></path><path d="M55.71 41.86a.1.1 0 0 0 .1-.1v-6.28a2.121 2.121 0 0 0-2.11-2.13H42.694v.338a1 1 0 0 1-2 0v-.338H7.11A2.115 2.115 0 0 0 5 35.48v6.28a.1.1 0 0 0 .1.1 3.723 3.723 0 0 1 0 7.44.108.108 0 0 0-.1.1v6.29a2.113 2.113 0 0 0 2.11 2.12h33.61a.937.937 0 0 1-.026-.123v-1a1 1 0 0 1 2 0v1a.938.938 0 0 1-.024.123H53.7a2.119 2.119 0 0 0 2.11-2.12V49.4a.108.108 0 0 0-.1-.1 3.722 3.722 0 0 1 0-7.44zm-37.686-4.313a3.447 3.447 0 1 1-3.447 3.447 3.451 3.451 0 0 1 3.447-3.447zm-2.448 16.07a1 1 0 0 1-.738-1.674l12.847-14.07a1 1 0 1 1 1.477 1.348L16.315 53.29a.995.995 0 0 1-.739.326zm10.4 0a3.447 3.447 0 1 1 3.447-3.447 3.451 3.451 0 0 1-3.447 3.447zm16.718.07a1 1 0 0 1-2 0v-1a1 1 0 0 1 2 0zm0-4a1 1 0 0 1-2 0v-1a1 1 0 0 1 2 0zm0-4a1 1 0 0 1-2 0v-1a1 1 0 0 1 2 0zm0-4a1 1 0 0 1-2 0v-1a1 1 0 0 1 2 0zm0-4a1 1 0 0 1-2 0v-1a1 1 0 0 1 2 0z" fill="#26bf94" opacity="1" data-original="#000000"></path><path d="M18.024 42.44a1.447 1.447 0 1 0-1.447-1.446 1.448 1.448 0 0 0 1.447 1.446z" fill="#26bf94" opacity="1" data-original="#000000"></path></g></g></svg>