<svg width="248" height="223" viewBox="0 0 248 223" fill="none" xmlns="http://www.w3.org/2000/svg">
<path d="M88.5874 61.0088L123.059 26.4491L103.205 6.54419C97.2874 0.611573 87.6915 0.611573 81.774 6.54419L25.4381 63.0236C19.5206 68.9562 19.5206 78.5766 25.4381 84.5092L81.774 140.989C87.6915 146.921 97.2874 146.921 103.205 140.989L125.119 119.018L88.5874 82.393C82.6971 76.4877 82.6971 66.9128 88.5874 61.0075V61.0088Z" fill="#004776"/>
<path d="M222.789 61.0085L166.354 4.42899C160.464 -1.47633 150.913 -1.47633 145.023 4.42899L123.059 26.4488L159.541 63.0233C165.458 68.9559 165.458 78.5763 159.541 84.5089L125.119 119.018L145.023 138.972C150.913 144.878 160.464 144.878 166.354 138.972L222.79 82.3927C228.68 76.4874 228.68 66.9125 222.79 61.0072L222.789 61.0085Z" fill="#E6791A"/>
<path d="M159.541 63.0247L123.059 26.4502L88.5874 61.0099C82.6971 66.9152 82.6971 76.4901 88.5874 82.3954L125.119 119.021L159.541 84.5116C165.458 78.579 165.458 68.9586 159.541 63.026V63.0247Z" fill="#736048"/>
<path d="M125.118 116.462C149.207 116.462 168.735 96.8847 168.735 72.7345C168.735 48.5844 149.207 29.0068 125.118 29.0068C101.029 29.0068 81.5017 48.5844 81.5017 72.7345C81.5017 96.8847 101.029 116.462 125.118 116.462Z" fill="url(#paint0_linear_727_3)"/>
<path opacity="0.3" d="M125.118 115.146C101.248 115.146 81.8609 95.9226 81.5095 72.0752C81.5069 72.2949 81.5017 72.5133 81.5017 72.7329C81.5017 96.8832 101.029 116.461 125.118 116.461C149.207 116.461 168.735 96.8832 168.735 72.7329C168.735 72.5133 168.73 72.2949 168.727 72.0752C168.376 95.9226 148.988 115.146 125.118 115.146Z" fill="#FDF356"/>
<path d="M125.118 30.6499C148.934 30.6499 168.287 49.7853 168.724 73.556C168.73 73.2831 168.735 73.0088 168.735 72.7345C168.735 48.5842 149.207 29.0068 125.118 29.0068C101.029 29.0068 81.5017 48.5842 81.5017 72.7345C81.5017 73.0088 81.5069 73.2831 81.5121 73.556C81.949 49.7853 101.304 30.6499 125.118 30.6499Z" fill="#FDF356"/>
<path style="mix-blend-mode:screen" d="M125.118 116.26C149.095 116.26 168.532 96.773 168.532 72.7349C168.532 48.6967 149.095 29.21 125.118 29.21C101.141 29.21 81.704 48.6967 81.704 72.7349C81.704 96.773 101.141 116.26 125.118 116.26Z" fill="url(#paint1_radial_727_3)"/>
<path style="mix-blend-mode:screen" opacity="0.7" d="M125.118 29.1689C101.526 29.1689 82.3276 48.0288 81.7053 71.5305C86.5064 74.3837 94.0577 72.0998 98.995 69.6249C103.24 67.6607 108.465 68.3159 113.037 68.6422C124.466 69.6249 135.569 74.5345 146.996 71.589C149.282 70.9338 152.547 67.9883 154.833 69.9524C158.86 73.3165 164.267 73.6064 168.532 71.5604C167.924 48.0457 148.72 29.1702 125.118 29.1702V29.1689Z" fill="url(#paint2_linear_727_3)"/>
<path d="M125.118 106.599C143.773 106.599 158.896 91.4371 158.896 72.7344C158.896 54.0317 143.773 38.8701 125.118 38.8701C106.463 38.8701 91.34 54.0317 91.34 72.7344C91.34 91.4371 106.463 106.599 125.118 106.599Z" fill="url(#paint3_linear_727_3)"/>
<path d="M125.118 104.956C142.868 104.956 157.258 90.5302 157.258 72.7349C157.258 54.9396 142.868 40.5137 125.118 40.5137C107.368 40.5137 92.9789 54.9396 92.9789 72.7349C92.9789 90.5302 107.368 104.956 125.118 104.956Z" fill="#EE9B00"/>
<path d="M125.118 103.641C142.144 103.641 155.945 89.8036 155.945 72.7348C155.945 55.6661 142.144 41.8291 125.118 41.8291C108.093 41.8291 94.291 55.6661 94.291 72.7348C94.291 89.8036 108.093 103.641 125.118 103.641Z" fill="url(#paint4_radial_727_3)"/>
<path opacity="0.25" d="M125.118 101.339C108.367 101.339 94.7371 88.6012 94.3027 71.9121C94.2962 72.1851 94.2924 72.4594 94.2924 72.7336C94.2924 89.8022 108.094 103.639 125.12 103.639C142.145 103.639 155.947 89.8022 155.947 72.7336C155.947 72.4594 155.943 72.1851 155.936 71.9121C155.502 88.6012 141.871 101.339 125.121 101.339H125.118Z" fill="#FDF356"/>
<path d="M123.225 91.9505C119.652 91.9505 116.895 92.2638 114.953 91.5787C113.011 90.8937 111.613 89.6783 110.759 87.9378C109.904 86.196 109.478 83.6898 109.478 80.418C109.478 77.5167 109.878 75.2601 110.682 73.6496C111.485 72.0404 112.857 70.8926 114.799 70.2062C116.741 69.5212 119.498 69.1767 123.071 69.1767H134.333V63.0816C134.333 61.657 134.061 60.5625 133.517 59.7969C132.974 59.0325 132.068 58.4905 130.798 58.1746C129.529 57.8575 127.679 57.7002 125.245 57.7002C121.362 57.7002 115.766 58.0173 111.056 58.6504V53.4262C116.182 52.9517 122.111 52.7139 126.255 52.7139C130.605 52.7139 133.814 53.044 135.886 53.7031C137.957 54.3634 139.382 55.5112 140.158 57.1464C140.935 58.783 141.324 61.3164 141.583 64.7455V91.8179H134.566L123.227 91.9518L123.225 91.9505ZM124.391 85.9178C126.927 85.9178 127.692 85.8372 129.44 85.4745C130.909 85.1691 131.64 85.4953 131.771 82.5849L131.522 73.608H123.536C121.309 73.608 119.704 73.7562 118.721 74.05C117.737 74.345 117.09 74.9001 116.779 75.7164C116.468 76.5327 116.313 77.8482 116.313 79.6602C116.313 81.2929 116.493 82.5498 116.856 83.4337C117.218 84.3176 117.867 84.9533 118.799 85.3381C119.731 85.7241 121.129 85.9165 122.993 85.9165H124.391V85.9178Z" fill="#B56B00"/>
<path d="M133.035 72.0586V82.1158C132.904 85.4473 132.824 85.5344 129.512 85.6579C127.715 85.7242 125.63 85.9309 123.093 85.9309H121.695C119.831 85.9309 118.433 85.7112 117.501 85.2692C116.569 84.8286 115.92 84.1007 115.559 83.0894C115.196 82.0768 115.015 80.6365 115.015 78.7673C115.015 76.6914 115.171 75.1848 115.481 74.2515C115.792 73.3169 116.439 72.6826 117.423 72.3433C118.406 72.0067 120.012 71.8377 122.239 71.8377H131.521C125.401 70.8784 119.29 69.1859 113.083 68.6465C111.362 69.3341 110.127 70.4104 109.384 71.8767C108.58 73.4612 108.181 75.6801 108.181 78.5346C108.181 81.7544 108.608 84.219 109.462 85.9322C110.317 87.6454 111.714 88.84 113.657 89.5146C115.599 90.1893 118.355 89.8799 121.929 89.8799L133.268 89.7473H140.026V72.511C137.69 72.5578 135.361 72.3732 133.036 72.0586H133.035Z" fill="url(#paint5_linear_727_3)"/>
<path style="mix-blend-mode:screen" opacity="0.7" d="M133.035 71.8379H131.521C132.025 71.9172 132.529 71.9913 133.035 72.0589V71.8379Z" fill="url(#paint6_linear_727_3)"/>
<path d="M138.86 55.6413C138.084 54.0334 136.659 52.9038 134.588 52.2539C132.516 51.6052 129.307 51.2803 124.957 51.2803C120.607 51.2803 116.181 51.5143 111.054 51.9809V57.1206C115.766 56.498 120.064 56.186 123.947 56.186C126.381 56.186 128.231 56.342 129.501 56.6526C130.769 56.9646 131.675 57.4976 132.219 58.2489C132.763 59.0015 133.035 60.0791 133.035 61.4804V67.4767H121.773C118.2 67.4767 115.443 67.8146 113.501 68.4893C113.358 68.5387 113.22 68.592 113.083 68.6466C119.29 69.186 125.402 70.8784 131.521 71.8377H133.035V72.0587C135.361 72.372 137.688 72.5579 140.025 72.5111V63.1169C140.025 59.7424 139.636 57.2519 138.859 55.6413H138.86Z" fill="url(#paint7_linear_727_3)"/>
<path style="mix-blend-mode:screen" opacity="0.7" d="M138.86 55.6413C138.084 54.0334 136.659 52.9038 134.588 52.2539C132.516 51.6052 129.307 51.2803 124.957 51.2803C120.607 51.2803 116.181 51.5143 111.054 51.9809V57.1206C115.766 56.498 120.064 56.186 123.947 56.186C126.381 56.186 128.231 56.342 129.501 56.6526C130.769 56.9646 131.675 57.4976 132.219 58.2489C132.763 59.0015 133.035 60.0791 133.035 61.4804V67.4767H121.773C118.2 67.4767 115.443 67.8146 113.501 68.4893C113.358 68.5387 113.22 68.592 113.083 68.6466C119.29 69.186 125.402 70.8784 131.521 71.8377H133.035V72.0587C135.361 72.372 137.688 72.5579 140.025 72.5111V63.1169C140.025 59.7424 139.636 57.2519 138.859 55.6413H138.86Z" fill="url(#paint8_linear_727_3)"/>
<path d="M33.2 178.08V206H27.6V187.84L20.12 206H15.88L8.36 187.84V206H2.76V178.08H9.12L18 198.84L26.88 178.08H33.2ZM59.9366 183.84L46.2166 216.48H40.2566L45.0566 205.44L36.1766 183.84H42.4566L48.1766 199.32L53.9766 183.84H59.9366ZM168.256 181.2C167.27 181.2 166.443 180.893 165.776 180.28C165.136 179.64 164.816 178.853 164.816 177.92C164.816 176.987 165.136 176.213 165.776 175.6C166.443 174.96 167.27 174.64 168.256 174.64C169.243 174.64 170.056 174.96 170.696 175.6C171.363 176.213 171.696 176.987 171.696 177.92C171.696 178.853 171.363 179.64 170.696 180.28C170.056 180.893 169.243 181.2 168.256 181.2ZM171.016 183.84V206H165.416V183.84H171.016Z" fill="#E6791A"/>
<path d="M86.8866 206L80.7266 195.12H78.0866V206H72.4866V178.08H82.9666C85.1266 178.08 86.9666 178.467 88.4866 179.24C90.0066 179.987 91.1399 181.013 91.8866 182.32C92.6599 183.6 93.0466 185.04 93.0466 186.64C93.0466 188.48 92.5132 190.147 91.4466 191.64C90.3799 193.107 88.7932 194.12 86.6866 194.68L93.3666 206H86.8866ZM78.0866 190.92H82.7666C84.2866 190.92 85.4199 190.56 86.1666 189.84C86.9132 189.093 87.2866 188.067 87.2866 186.76C87.2866 185.48 86.9132 184.493 86.1666 183.8C85.4199 183.08 84.2866 182.72 82.7666 182.72H78.0866V190.92ZM118.712 194.44C118.712 195.24 118.658 195.96 118.552 196.6H102.352C102.485 198.2 103.045 199.453 104.032 200.36C105.018 201.267 106.232 201.72 107.672 201.72C109.752 201.72 111.232 200.827 112.112 199.04H118.152C117.512 201.173 116.285 202.933 114.472 204.32C112.658 205.68 110.432 206.36 107.792 206.36C105.658 206.36 103.738 205.893 102.032 204.96C100.352 204 99.0316 202.653 98.0716 200.92C97.1382 199.187 96.6716 197.187 96.6716 194.92C96.6716 192.627 97.1382 190.613 98.0716 188.88C99.0049 187.147 100.312 185.813 101.992 184.88C103.672 183.947 105.605 183.48 107.792 183.48C109.898 183.48 111.778 183.933 113.432 184.84C115.112 185.747 116.405 187.04 117.312 188.72C118.245 190.373 118.712 192.28 118.712 194.44ZM112.912 192.84C112.885 191.4 112.365 190.253 111.352 189.4C110.338 188.52 109.098 188.08 107.632 188.08C106.245 188.08 105.072 188.507 104.112 189.36C103.178 190.187 102.605 191.347 102.392 192.84H112.912ZM129.319 188.44V199.16C129.319 199.907 129.492 200.453 129.839 200.8C130.212 201.12 130.826 201.28 131.679 201.28H134.279V206H130.759C126.039 206 123.679 203.707 123.679 199.12V188.44H121.039V183.84H123.679V178.36H129.319V183.84H134.279V188.44H129.319ZM136.867 194.84C136.867 192.6 137.307 190.613 138.187 188.88C139.094 187.147 140.307 185.813 141.827 184.88C143.374 183.947 145.094 183.48 146.987 183.48C148.64 183.48 150.08 183.813 151.307 184.48C152.56 185.147 153.56 185.987 154.307 187V183.84H159.947V206H154.307V202.76C153.587 203.8 152.587 204.667 151.307 205.36C150.054 206.027 148.6 206.36 146.947 206.36C145.08 206.36 143.374 205.88 141.827 204.92C140.307 203.96 139.094 202.613 138.187 200.88C137.307 199.12 136.867 197.107 136.867 194.84ZM154.307 194.92C154.307 193.56 154.04 192.4 153.507 191.44C152.974 190.453 152.254 189.707 151.347 189.2C150.44 188.667 149.467 188.4 148.427 188.4C147.387 188.4 146.427 188.653 145.547 189.16C144.667 189.667 143.947 190.413 143.387 191.4C142.854 192.36 142.587 193.507 142.587 194.84C142.587 196.173 142.854 197.347 143.387 198.36C143.947 199.347 144.667 200.107 145.547 200.64C146.454 201.173 147.414 201.44 148.427 201.44C149.467 201.44 150.44 201.187 151.347 200.68C152.254 200.147 152.974 199.4 153.507 198.44C154.04 197.453 154.307 196.28 154.307 194.92ZM182.149 176.4V206H176.549V176.4H182.149ZM208.282 194.44C208.282 195.24 208.229 195.96 208.122 196.6H191.922C192.055 198.2 192.615 199.453 193.602 200.36C194.589 201.267 195.802 201.72 197.242 201.72C199.322 201.72 200.802 200.827 201.682 199.04H207.722C207.082 201.173 205.855 202.933 204.042 204.32C202.229 205.68 200.002 206.36 197.362 206.36C195.229 206.36 193.309 205.893 191.602 204.96C189.922 204 188.602 202.653 187.642 200.92C186.709 199.187 186.242 197.187 186.242 194.92C186.242 192.627 186.709 190.613 187.642 188.88C188.575 187.147 189.882 185.813 191.562 184.88C193.242 183.947 195.175 183.48 197.362 183.48C199.469 183.48 201.349 183.933 203.002 184.84C204.682 185.747 205.975 187.04 206.882 188.72C207.815 190.373 208.282 192.28 208.282 194.44ZM202.482 192.84C202.455 191.4 201.935 190.253 200.922 189.4C199.909 188.52 198.669 188.08 197.202 188.08C195.815 188.08 194.642 188.507 193.682 189.36C192.749 190.187 192.175 191.347 191.962 192.84H202.482ZM217.969 187.28C218.689 186.107 219.623 185.187 220.769 184.52C221.943 183.853 223.276 183.52 224.769 183.52V189.4H223.289C221.529 189.4 220.196 189.813 219.289 190.64C218.409 191.467 217.969 192.907 217.969 194.96V206H212.369V183.84H217.969V187.28ZM237.021 206.36C235.208 206.36 233.581 206.04 232.141 205.4C230.701 204.733 229.555 203.84 228.701 202.72C227.875 201.6 227.421 200.36 227.341 199H232.981C233.088 199.853 233.501 200.56 234.221 201.12C234.968 201.68 235.888 201.96 236.981 201.96C238.048 201.96 238.875 201.747 239.461 201.32C240.075 200.893 240.381 200.347 240.381 199.68C240.381 198.96 240.008 198.427 239.261 198.08C238.541 197.707 237.381 197.307 235.781 196.88C234.128 196.48 232.768 196.067 231.701 195.64C230.661 195.213 229.755 194.56 228.981 193.68C228.235 192.8 227.861 191.613 227.861 190.12C227.861 188.893 228.208 187.773 228.901 186.76C229.621 185.747 230.635 184.947 231.941 184.36C233.275 183.773 234.835 183.48 236.621 183.48C239.261 183.48 241.368 184.147 242.941 185.48C244.515 186.787 245.381 188.56 245.541 190.8H240.181C240.101 189.92 239.728 189.227 239.061 188.72C238.421 188.187 237.555 187.92 236.461 187.92C235.448 187.92 234.661 188.107 234.101 188.48C233.568 188.853 233.301 189.373 233.301 190.04C233.301 190.787 233.675 191.36 234.421 191.76C235.168 192.133 236.328 192.52 237.901 192.92C239.501 193.32 240.821 193.733 241.861 194.16C242.901 194.587 243.795 195.253 244.541 196.16C245.315 197.04 245.715 198.213 245.741 199.68C245.741 200.96 245.381 202.107 244.661 203.12C243.968 204.133 242.955 204.933 241.621 205.52C240.315 206.08 238.781 206.36 237.021 206.36Z" fill="#004776"/>
<defs>
<linearGradient id="paint0_linear_727_3" x1="125.118" y1="29.0055" x2="125.118" y2="116.462" gradientUnits="userSpaceOnUse">
<stop stop-color="#F8DF00"/>
<stop offset="0.14" stop-color="#FCE800"/>
<stop offset="0.3" stop-color="#FFEF00"/>
<stop offset="1" stop-color="#F3A700"/>
</linearGradient>
<radialGradient id="paint1_radial_727_3" cx="0" cy="0" r="1" gradientUnits="userSpaceOnUse" gradientTransform="translate(124.684 22.9914) scale(34.7376 34.8262)">
<stop stop-color="#FFF77D"/>
<stop offset="1"/>
</radialGradient>
<linearGradient id="paint2_linear_727_3" x1="125.119" y1="109.181" x2="125.119" y2="45.7241" gradientUnits="userSpaceOnUse">
<stop stop-color="#FFFAB0"/>
<stop offset="1"/>
</linearGradient>
<linearGradient id="paint3_linear_727_3" x1="125.118" y1="106.599" x2="125.118" y2="23.3873" gradientUnits="userSpaceOnUse">
<stop stop-color="#FFE100"/>
<stop offset="0.17" stop-color="#FCD600"/>
<stop offset="0.7" stop-color="#F7B900"/>
<stop offset="1" stop-color="#F5AE00"/>
</linearGradient>
<radialGradient id="paint4_radial_727_3" cx="0" cy="0" r="1" gradientUnits="userSpaceOnUse" gradientTransform="translate(125.446 46.1031) scale(61.9837 62.1417)">
<stop offset="0.31" stop-color="#FFDF00"/>
<stop offset="1" stop-color="#F3A700"/>
</radialGradient>
<linearGradient id="paint5_linear_727_3" x1="126.203" y1="58.7909" x2="121.39" y2="115.302" gradientUnits="userSpaceOnUse">
<stop offset="0.46" stop-color="#FCD208"/>
<stop offset="0.48" stop-color="#FACC06"/>
<stop offset="0.54" stop-color="#F7BB03"/>
<stop offset="0.61" stop-color="#F4AF01"/>
<stop offset="0.71" stop-color="#F3A800"/>
<stop offset="1" stop-color="#F3A700"/>
</linearGradient>
<linearGradient id="paint6_linear_727_3" x1="132.278" y1="109.181" x2="132.278" y2="45.7255" gradientUnits="userSpaceOnUse">
<stop stop-color="#FFFAB0"/>
<stop offset="1"/>
</linearGradient>
<linearGradient id="paint7_linear_727_3" x1="124.92" y1="64.4194" x2="116.181" y2="94.861" gradientUnits="userSpaceOnUse">
<stop offset="0.31" stop-color="#FFDF00"/>
<stop offset="1" stop-color="#F3A700"/>
</linearGradient>
<linearGradient id="paint8_linear_727_3" x1="125.54" y1="109.182" x2="125.54" y2="45.7246" gradientUnits="userSpaceOnUse">
<stop stop-color="#FFFAB0"/>
<stop offset="1"/>
</linearGradient>
</defs>
</svg>
