<svg width="208" height="146" viewBox="0 0 208 146" fill="none" xmlns="http://www.w3.org/2000/svg">
<path d="M67.5874 61.0088L102.059 26.4491L82.2049 6.54419C76.2874 0.611573 66.6915 0.611573 60.774 6.54419L4.43815 63.0236C-1.47938 68.9562 -1.47938 78.5766 4.43815 84.5092L60.774 140.989C66.6915 146.921 76.2874 146.921 82.2049 140.989L104.119 119.018L67.5874 82.393C61.6971 76.4877 61.6971 66.9128 67.5874 61.0075V61.0088Z" fill="#004776"/>
<path d="M202.729 61.0085L146.295 4.42899C140.405 -1.47633 130.854 -1.47633 124.964 4.42899L103 26.4488L139.481 63.0233C145.399 68.9559 145.399 78.5763 139.481 84.5089L105.06 119.018L124.964 138.972C130.854 144.878 140.405 144.878 146.295 138.972L202.731 82.3927C208.621 76.4874 208.621 66.9125 202.731 61.0072L202.729 61.0085Z" fill="#E6791A"/>
<path d="M138.541 63.0247L102.059 26.4502L67.5874 61.0099C61.6971 66.9152 61.6971 76.4901 67.5874 82.3954L104.119 119.021L138.541 84.5116C144.458 78.579 144.458 68.9586 138.541 63.026V63.0247Z" fill="#736048"/>
<path d="M104.118 116.462C128.207 116.462 147.735 96.8847 147.735 72.7345C147.735 48.5844 128.207 29.0068 104.118 29.0068C80.0295 29.0068 60.5017 48.5844 60.5017 72.7345C60.5017 96.8847 80.0295 116.462 104.118 116.462Z" fill="url(#paint0_linear_52_134)"/>
<path opacity="0.3" d="M104.118 115.146C80.2484 115.146 60.8609 95.9226 60.5095 72.0752C60.5069 72.2949 60.5017 72.5133 60.5017 72.7329C60.5017 96.8832 80.0293 116.461 104.118 116.461C128.207 116.461 147.735 96.8832 147.735 72.7329C147.735 72.5133 147.73 72.2949 147.727 72.0752C147.376 95.9226 127.988 115.146 104.118 115.146Z" fill="#FDF356"/>
<path d="M104.118 30.6499C127.934 30.6499 147.287 49.7853 147.724 73.556C147.73 73.2831 147.735 73.0088 147.735 72.7345C147.735 48.5842 128.207 29.0068 104.118 29.0068C80.0293 29.0068 60.5017 48.5842 60.5017 72.7345C60.5017 73.0088 60.5069 73.2831 60.5121 73.556C60.949 49.7853 80.3042 30.6499 104.118 30.6499Z" fill="#FDF356"/>
<path style="mix-blend-mode:screen" d="M104.118 116.26C128.095 116.26 147.532 96.773 147.532 72.7349C147.532 48.6967 128.095 29.21 104.118 29.21C80.1411 29.21 60.7039 48.6967 60.7039 72.7349C60.7039 96.773 80.1411 116.26 104.118 116.26Z" fill="url(#paint1_radial_52_134)"/>
<path style="mix-blend-mode:screen" opacity="0.7" d="M104.118 29.1689C80.5259 29.1689 61.3277 48.0288 60.7053 71.5305C65.5065 74.3837 73.0577 72.0998 77.995 69.6249C82.24 67.6607 87.4652 68.3159 92.0369 68.6422C103.466 69.6249 114.569 74.5345 125.997 71.589C128.282 70.9338 131.547 67.9883 133.833 69.9524C137.86 73.3165 143.267 73.6064 147.533 71.5604C146.924 48.0457 127.72 29.1702 104.118 29.1702V29.1689Z" fill="url(#paint2_linear_52_134)"/>
<path d="M104.118 106.599C122.773 106.599 137.896 91.4371 137.896 72.7344C137.896 54.0317 122.773 38.8701 104.118 38.8701C85.4631 38.8701 70.3401 54.0317 70.3401 72.7344C70.3401 91.4371 85.4631 106.599 104.118 106.599Z" fill="url(#paint3_linear_52_134)"/>
<path d="M104.118 104.956C121.868 104.956 136.258 90.5302 136.258 72.7349C136.258 54.9396 121.868 40.5137 104.118 40.5137C86.3683 40.5137 71.979 54.9396 71.979 72.7349C71.979 90.5302 86.3683 104.956 104.118 104.956Z" fill="#EE9B00"/>
<path d="M104.118 103.641C121.144 103.641 134.945 89.8036 134.945 72.7348C134.945 55.6661 121.144 41.8291 104.118 41.8291C87.0928 41.8291 73.291 55.6661 73.291 72.7348C73.291 89.8036 87.0928 103.641 104.118 103.641Z" fill="url(#paint4_radial_52_134)"/>
<path opacity="0.25" d="M104.118 101.339C87.3665 101.339 73.737 88.6012 73.3026 71.9121C73.2961 72.1851 73.2922 72.4594 73.2922 72.7336C73.2922 89.8022 87.0942 103.639 104.119 103.639C121.145 103.639 134.947 89.8022 134.947 72.7336C134.947 72.4594 134.943 72.1851 134.936 71.9121C134.502 88.6012 120.871 101.339 104.121 101.339H104.118Z" fill="#FDF356"/>
<path d="M102.225 91.9505C98.6519 91.9505 95.8954 92.2638 93.9532 91.5787C92.0109 90.8937 90.6132 89.6783 89.7588 87.9378C88.9044 86.196 88.4778 83.6898 88.4778 80.418C88.4778 77.5167 88.8784 75.2601 89.6823 73.6496C90.4849 72.0404 91.8566 70.8926 93.7989 70.2062C95.7412 69.5212 98.4976 69.1767 102.071 69.1767H113.333V63.0816C113.333 61.657 113.061 60.5625 112.517 59.7969C111.974 59.0325 111.068 58.4905 109.799 58.1746C108.529 57.8575 106.679 57.7002 104.245 57.7002C100.362 57.7002 94.7661 58.0173 90.0557 58.6504V53.4262C95.1823 52.9517 101.112 52.7139 105.255 52.7139C109.605 52.7139 112.814 53.044 114.886 53.7031C116.957 54.3634 118.382 55.5112 119.158 57.1464C119.935 58.783 120.324 61.3164 120.583 64.7455V91.8179H113.566L102.227 91.9518L102.225 91.9505ZM103.391 85.9178C105.927 85.9178 106.692 85.8372 108.44 85.4745C109.909 85.1691 110.64 85.4953 110.771 82.5849L110.522 73.608H102.536C100.309 73.608 98.7038 73.7562 97.721 74.05C96.7369 74.345 96.0899 74.9001 95.7787 75.7164C95.4676 76.5327 95.3133 77.8482 95.3133 79.6602C95.3133 81.2929 95.4935 82.5498 95.8565 83.4337C96.2183 84.3176 96.8666 84.9533 97.7988 85.3381C98.731 85.7241 100.129 85.9165 101.993 85.9165H103.391V85.9178Z" fill="#B56B00"/>
<path d="M112.035 72.0586V82.1158C111.904 85.4473 111.824 85.5344 108.512 85.6579C106.715 85.7242 104.63 85.9309 102.093 85.9309H100.695C98.8308 85.9309 97.4331 85.7112 96.5009 85.2692C95.5686 84.8286 94.9204 84.1007 94.5586 83.0894C94.1956 82.0768 94.0153 80.6365 94.0153 78.7673C94.0153 76.6914 94.1709 75.1848 94.4808 74.2515C94.792 73.3169 95.439 72.6826 96.4231 72.3433C97.4059 72.0067 99.0123 71.8377 101.239 71.8377H110.521C104.401 70.8784 98.2901 69.1859 92.0835 68.6465C90.3616 69.3341 89.1273 70.4104 88.3844 71.8767C87.5805 73.4612 87.1812 75.6801 87.1812 78.5346C87.1812 81.7544 87.6077 84.219 88.4622 85.9322C89.3166 87.6454 90.7143 88.84 92.6566 89.5146C94.5988 90.1893 97.3553 89.8799 100.929 89.8799L112.268 89.7473H119.026V72.511C116.69 72.5578 114.361 72.3732 112.036 72.0586H112.035Z" fill="url(#paint5_linear_52_134)"/>
<path style="mix-blend-mode:screen" opacity="0.7" d="M112.035 71.8379H110.521C111.025 71.9172 111.529 71.9913 112.035 72.0589V71.8379Z" fill="url(#paint6_linear_52_134)"/>
<path d="M117.861 55.6413C117.084 54.0334 115.659 52.9038 113.588 52.2539C111.517 51.6052 108.308 51.2803 103.958 51.2803C99.6075 51.2803 95.1811 51.5143 90.0544 51.9809V57.1206C94.7662 56.498 99.0643 56.186 102.947 56.186C105.381 56.186 107.231 56.342 108.501 56.6526C109.769 56.9646 110.675 57.4976 111.22 58.2489C111.763 59.0015 112.035 60.0791 112.035 61.4804V67.4767H100.773C97.1998 67.4767 94.4433 67.8146 92.5011 68.4893C92.3584 68.5387 92.2197 68.592 92.0836 68.6466C98.2902 69.186 104.402 70.8784 110.521 71.8377H112.035V72.0587C114.361 72.372 116.689 72.5579 119.025 72.5111V63.1169C119.025 59.7424 118.636 57.2519 117.859 55.6413H117.861Z" fill="url(#paint7_linear_52_134)"/>
<path style="mix-blend-mode:screen" opacity="0.7" d="M117.861 55.6413C117.084 54.0334 115.659 52.9038 113.588 52.2539C111.517 51.6052 108.308 51.2803 103.958 51.2803C99.6075 51.2803 95.1811 51.5143 90.0544 51.9809V57.1206C94.7662 56.498 99.0643 56.186 102.947 56.186C105.381 56.186 107.231 56.342 108.501 56.6526C109.769 56.9646 110.675 57.4976 111.22 58.2489C111.763 59.0015 112.035 60.0791 112.035 61.4804V67.4767H100.773C97.1998 67.4767 94.4433 67.8146 92.5011 68.4893C92.3584 68.5387 92.2197 68.592 92.0836 68.6466C98.2902 69.186 104.402 70.8784 110.521 71.8377H112.035V72.0587C114.361 72.372 116.689 72.5579 119.025 72.5111V63.1169C119.025 59.7424 118.636 57.2519 117.859 55.6413H117.861Z" fill="url(#paint8_linear_52_134)"/>
<defs>
<linearGradient id="paint0_linear_52_134" x1="104.118" y1="29.0055" x2="104.118" y2="116.462" gradientUnits="userSpaceOnUse">
<stop stop-color="#F8DF00"/>
<stop offset="0.14" stop-color="#FCE800"/>
<stop offset="0.3" stop-color="#FFEF00"/>
<stop offset="1" stop-color="#F3A700"/>
</linearGradient>
<radialGradient id="paint1_radial_52_134" cx="0" cy="0" r="1" gradientUnits="userSpaceOnUse" gradientTransform="translate(103.684 22.9914) scale(34.7376 34.8262)">
<stop stop-color="#FFF77D"/>
<stop offset="1"/>
</radialGradient>
<linearGradient id="paint2_linear_52_134" x1="104.12" y1="109.181" x2="104.12" y2="45.7241" gradientUnits="userSpaceOnUse">
<stop stop-color="#FFFAB0"/>
<stop offset="1"/>
</linearGradient>
<linearGradient id="paint3_linear_52_134" x1="104.118" y1="106.599" x2="104.118" y2="23.3873" gradientUnits="userSpaceOnUse">
<stop stop-color="#FFE100"/>
<stop offset="0.17" stop-color="#FCD600"/>
<stop offset="0.7" stop-color="#F7B900"/>
<stop offset="1" stop-color="#F5AE00"/>
</linearGradient>
<radialGradient id="paint4_radial_52_134" cx="0" cy="0" r="1" gradientUnits="userSpaceOnUse" gradientTransform="translate(104.446 46.1031) scale(61.9837 62.1417)">
<stop offset="0.31" stop-color="#FFDF00"/>
<stop offset="1" stop-color="#F3A700"/>
</radialGradient>
<linearGradient id="paint5_linear_52_134" x1="105.203" y1="58.7909" x2="100.39" y2="115.302" gradientUnits="userSpaceOnUse">
<stop offset="0.46" stop-color="#FCD208"/>
<stop offset="0.48" stop-color="#FACC06"/>
<stop offset="0.54" stop-color="#F7BB03"/>
<stop offset="0.61" stop-color="#F4AF01"/>
<stop offset="0.71" stop-color="#F3A800"/>
<stop offset="1" stop-color="#F3A700"/>
</linearGradient>
<linearGradient id="paint6_linear_52_134" x1="111.278" y1="109.181" x2="111.278" y2="45.7255" gradientUnits="userSpaceOnUse">
<stop stop-color="#FFFAB0"/>
<stop offset="1"/>
</linearGradient>
<linearGradient id="paint7_linear_52_134" x1="103.92" y1="64.4194" x2="95.1815" y2="94.861" gradientUnits="userSpaceOnUse">
<stop offset="0.31" stop-color="#FFDF00"/>
<stop offset="1" stop-color="#F3A700"/>
</linearGradient>
<linearGradient id="paint8_linear_52_134" x1="104.54" y1="109.182" x2="104.54" y2="45.7246" gradientUnits="userSpaceOnUse">
<stop stop-color="#FFFAB0"/>
<stop offset="1"/>
</linearGradient>
</defs>
</svg>
