<svg id="Layer_1" height="512" viewBox="0 0 512 512" width="512" xmlns="http://www.w3.org/2000/svg" data-name="Layer 1"><path d="m425.515 322.878h-.026c11.9-13.273 18.118-32.98 18.118-52.01a53.171 53.171 0 1 0 -106.342 0c0 15.215 4.434 31.5 11.861 43.555a61.313 61.313 0 0 0 6.238 8.455h-.036a58.64 58.64 0 0 0 -34.472 11.113 84.019 84.019 0 0 0 -13.661-1.134h-8.927a80.166 80.166 0 0 0 14.283-17c11.03-17.328 17.356-40.12 17.356-62.532a73.893 73.893 0 1 0 -147.785 0c0 21.538 6.264 44.567 16.757 61.6a80.08 80.08 0 0 0 14.8 17.934h-8.869a84.019 84.019 0 0 0 -13.661 1.134 58.642 58.642 0 0 0 -34.472-11.113h-.036a61.313 61.313 0 0 0 6.238-8.455c7.427-12.057 11.861-28.34 11.861-43.555a53.157 53.157 0 1 0 -106.314 0c0 19.03 6.22 38.737 18.109 52.01h-.045c-31.109 0-56.417 23.758-56.417 52.959v61.4a8 8 0 0 0 8 8h88.1v50.761a8 8 0 0 0 8 8h243.67a8 8 0 0 0 8-8v-50.763h88.117a8 8 0 0 0 8-8v-61.4c0-29.201-25.321-52.959-56.445-52.959zm-72.25-52.01a37.171 37.171 0 1 1 74.342 0c0 20.109-10.1 52.01-37.186 52.01-27.068 0-37.156-31.901-37.156-52.01zm-97.265-75.454a57.973 57.973 0 0 1 57.907 57.907c0 .417-.017.835-.023 1.252-22.293-2.542-41.534-7.5-67.519-27.873a8 8 0 0 0 -9.079-.547l-39.047 23.647a57.958 57.958 0 0 1 57.761-54.386zm-43.5 111.118c-6.679-10.844-11.356-24.591-13.329-38.6l41.738-25.27c27.127 20.129 48.36 25.24 71.558 27.852-2.208 13.474-6.882 26.481-13.415 36.746-7.433 11.677-20.936 25.6-43.054 25.6-18.098-.003-32.736-8.86-43.498-26.328zm-128.079-35.664a37.157 37.157 0 1 1 74.314 0c0 20.109-10.088 52.01-37.157 52.01s-37.157-31.901-37.157-52.01zm-38.353 158.369v-53.4c0-20.379 18.131-36.959 40.417-36.959h70.187a43.458 43.458 0 0 1 12.715 1.9c-25.614 12.148-43.222 37.016-43.222 65.677v22.785zm323.767 58.763h-40.552v-49.318a8 8 0 0 0 -16 0v49.318h-114.538v-49.318a8 8 0 0 0 -16 0v49.318h-40.58v-81.548c0-31.758 28.1-57.595 62.64-57.595h102.395c34.54 0 62.64 25.837 62.64 57.595zm96.125-58.763h-80.125v-22.785c0-28.661-17.608-53.529-43.222-65.677a43.458 43.458 0 0 1 12.715-1.9h70.187c22.3 0 40.445 16.58 40.445 36.959zm-254.413-325.979-6.241 43.3a8 8 0 0 0 11.452 8.318l39.242-19.321 39.27 19.323a8 8 0 0 0 11.451-8.319l-6.242-43.3 30.507-31.364a8 8 0 0 0 -4.37-13.461l-43.124-7.465-20.417-38.7a8 8 0 0 0 -7.075-4.269 8 8 0 0 0 -7.076 4.271l-20.389 38.7-43.121 7.464a8 8 0 0 0 -4.37 13.461zm23.594-37.195a8 8 0 0 0 5.713-4.154l15.146-28.755 15.173 28.759a8 8 0 0 0 5.711 4.15l32.053 5.548-22.671 23.313a8 8 0 0 0 -2.183 6.72l4.638 32.179-29.189-14.363a8 8 0 0 0 -7.066 0l-29.158 14.357 4.637-32.174a8 8 0 0 0 -2.183-6.719l-22.675-23.313zm-172.074 50.688-4.287 29.811a8 8 0 0 0 11.454 8.315l27.021-13.311 26.994 13.309a8 8 0 0 0 11.456-8.313l-4.287-29.808 21.009-21.586a8 8 0 0 0 -4.368-13.462l-29.686-5.14-14.04-26.625a8 8 0 0 0 -7.073-4.268 8 8 0 0 0 -7.074 4.263l-14.07 26.63-29.662 5.141a8 8 0 0 0 -4.371 13.458zm19.653-25.091a8 8 0 0 0 5.708-4.145l8.822-16.7 8.8 16.7a8 8 0 0 0 5.712 4.152l18.611 3.222-13.171 13.533a8 8 0 0 0 -2.185 6.718l2.686 18.677-16.913-8.338a8 8 0 0 0 -7.072 0l-16.945 8.347 2.687-18.684a8 8 0 0 0 -2.182-6.715l-13.155-13.544zm297.863 25.091-4.283 29.811a8 8 0 0 0 11.454 8.315l27.022-13.311 27.023 13.311a8 8 0 0 0 11.453-8.322l-4.311-29.8 21.006-21.583a8 8 0 0 0 -4.368-13.462l-29.687-5.14-14.044-26.629a8 8 0 0 0 -7.074-4.268 8 8 0 0 0 -7.073 4.263l-14.067 26.63-29.662 5.141a8 8 0 0 0 -4.372 13.458zm19.652-25.091a8 8 0 0 0 5.708-4.146l8.822-16.7 8.8 16.7a8 8 0 0 0 5.712 4.152l18.612 3.222-13.172 13.533a8 8 0 0 0 -2.184 6.725l2.7 18.67-16.93-8.34a8.008 8.008 0 0 0 -7.071 0l-16.944 8.346 2.687-18.682a8 8 0 0 0 -2.182-6.716l-13.155-13.541z"/></svg>