<svg id="Capa_1" enable-background="new 0 0 512 512" height="512" viewBox="0 0 512 512" width="512" xmlns="http://www.w3.org/2000/svg"><g><path d="m473.999 361.442c4.143 0 7.5-3.357 7.5-7.5v-17.876c0-27.133-22.074-49.207-49.207-49.207h-33.081v-231.559c0-12.914-10.506-23.42-23.42-23.42h-9.51v-8.46c0-12.914-10.506-23.42-23.42-23.42h-220.751c-1.642.14-3.279.272-5.308 2.202l-84.098 83.958c-2.147 2.144-2.792 5.371-1.632 8.175s3.896 4.633 6.931 4.633h68.19c12.912 0 23.417-10.505 23.417-23.417v-60.551h213.251c4.643 0 8.42 3.777 8.42 8.42v263.439h-45.716c-27.133 0-49.207 22.074-49.207 49.207v70.764h-202.437c-4.643 0-8.42-3.777-8.42-8.42v-271.898c0-4.143-3.357-7.5-7.5-7.5s-7.5 3.357-7.5 7.5v271.898c0 12.914 10.506 23.42 23.42 23.42h9.52v8.46c0 12.914 10.502 23.42 23.41 23.42h169.508v9.083c0 27.133 22.074 49.207 49.207 49.207h126.727c27.133 0 49.207-22.074 49.207-49.207v-73.84c0-4.143-3.357-7.5-7.5-7.5s-7.5 3.357-7.5 7.5v73.84c0 18.861-15.346 34.207-34.207 34.207h-126.728c-18.861 0-34.207-15.346-34.207-34.207v-126.727c0-18.861 15.346-34.207 34.207-34.207h126.727c18.861 0 34.207 15.346 34.207 34.207v17.876c0 4.143 3.357 7.5 7.5 7.5zm-359.389-285.891c0 4.642-3.775 8.417-8.417 8.417h-50.062l58.479-58.383zm-27.759 363.159c-4.638 0-8.41-3.777-8.41-8.42v-8.46h177.918v16.88zm279.43-391.83h9.51c4.643 0 8.42 3.777 8.42 8.42v231.56h-17.93z"/><path d="m401.038 353.961-45.858 45.859-14.76-14.76c-6.773-6.771-17.793-6.771-24.566 0l-13.1 13.1c-6.772 6.773-6.772 17.793 0 24.566l33.562 33.56c4.78 4.781 11.137 7.414 17.897 7.414s13.117-2.633 17.897-7.413l65.627-65.627c6.772-6.773 6.772-17.793 0-24.566l-12.133-12.133c-6.773-6.772-17.792-6.772-24.566 0zm26.092 26.092-65.627 65.628c-1.947 1.947-4.536 3.02-7.29 3.02s-5.343-1.072-7.29-3.021l-33.562-33.561c-.604-.604-.694-1.309-.694-1.676s.09-1.072.694-1.676l13.1-13.1c.604-.604 1.309-.694 1.676-.694s1.072.09 1.677.694l20.063 20.062c2.928 2.928 7.677 2.928 10.606 0l51.162-51.162c.604-.604 1.309-.694 1.676-.694s1.072.09 1.676.694l12.133 12.133c.925.925.925 2.429 0 3.353z"/><path d="m294.452 196.992c11.28 0 20.457-9.177 20.457-20.457v-114.095c0-11.279-9.177-20.456-20.457-20.456h-114.095c-11.28 0-20.457 9.177-20.457 20.456v114.095c0 11.28 9.177 20.457 20.457 20.457zm-85.03-15v-18.722c0-11.174 9.091-20.265 20.265-20.265h15.519c11.174 0 20.264 9.091 20.264 20.265v18.722zm38.456-64.419c0 5.753-4.68 10.433-10.433 10.433s-10.433-4.68-10.433-10.433v-8.173c0-5.753 4.68-10.433 10.433-10.433s10.433 4.68 10.433 10.433zm-72.978 58.962v-114.095c0-3.009 2.448-5.456 5.457-5.456h114.095c3.009 0 5.457 2.447 5.457 5.456v114.095c0 3.009-2.448 5.457-5.457 5.457h-13.983v-18.722c0-14.508-8.808-26.993-21.354-32.4 2.385-3.872 3.764-8.426 3.764-13.297v-8.173c0-14.023-11.409-25.433-25.433-25.433s-25.433 11.409-25.433 25.433v8.173c0 4.871 1.379 9.425 3.764 13.297-12.547 5.407-21.355 17.893-21.355 32.4v18.722h-14.064c-3.009 0-5.458-2.448-5.458-5.457z"/><path d="m82.802 247.796c0 4.143 3.357 7.5 7.5 7.5h214.865c4.143 0 7.5-3.357 7.5-7.5s-3.357-7.5-7.5-7.5h-214.865c-4.143 0-7.5 3.357-7.5 7.5z"/><path d="m209.342 278.224h-119.04c-4.143 0-7.5 3.357-7.5 7.5s3.357 7.5 7.5 7.5h119.04c4.143 0 7.5-3.357 7.5-7.5s-3.358-7.5-7.5-7.5z"/><path d="m209.342 316.151h-24.543c-4.143 0-7.5 3.357-7.5 7.5s3.357 7.5 7.5 7.5h24.543c4.143 0 7.5-3.357 7.5-7.5s-3.358-7.5-7.5-7.5z"/><path d="m90.302 331.151h59.52c4.143 0 7.5-3.357 7.5-7.5s-3.357-7.5-7.5-7.5h-59.52c-4.143 0-7.5 3.357-7.5 7.5s3.357 7.5 7.5 7.5z"/><path d="m90.302 369.079h119.04c4.143 0 7.5-3.357 7.5-7.5s-3.357-7.5-7.5-7.5h-119.04c-4.143 0-7.5 3.357-7.5 7.5s3.357 7.5 7.5 7.5z"/><path d="m109.646 159.542-24.647 24.646c-2.93 2.929-2.93 7.678-.001 10.606 1.465 1.465 3.384 2.197 5.304 2.197 1.919 0 3.839-.732 5.303-2.196l24.647-24.646c2.93-2.929 2.93-7.678.001-10.606s-7.678-2.93-10.607-.001z"/></g></svg>